<svg width="300" height="200" viewBox="0 0 300 200" xmlns="http://www.w3.org/2000/svg">
  <defs>
    <linearGradient id="bg2" x1="0%" y1="0%" x2="100%" y2="100%">
      <stop offset="0%" style="stop-color:#87CEEB;stop-opacity:1" />
      <stop offset="100%" style="stop-color:#B0E0E6;stop-opacity:1" />
    </linearGradient>
  </defs>
  
  <!-- Background -->
  <rect width="300" height="200" fill="url(#bg2)"/>
  
  <!-- Persian Cat -->
  <circle cx="150" cy="100" r="35" fill="#F5DEB3"/>
  <circle cx="150" cy="90" r="18" fill="#F5DEB3"/>
  <circle cx="145" cy="85" r="2" fill="#000"/>
  <circle cx="155" cy="85" r="2" fill="#000"/>
  <ellipse cx="150" cy="92" rx="6" ry="3" fill="#000"/>
  <path d="M 140 85 L 135 75 L 145 80 Z" fill="#F5DEB3"/>
  <path d="M 160 85 L 165 75 L 155 80 Z" fill="#F5DEB3"/>
  <path d="M 150 110 Q 140 120 150 130 Q 160 120 150 110" fill="#F5DEB3"/>
  
  <!-- Hearts -->
  <path d="M 50 50 Q 45 40 40 50 Q 35 40 30 50 Q 35 60 40 70 Q 45 60 50 50" fill="#FF69B4"/>
  <path d="M 250 50 Q 245 40 240 50 Q 235 40 230 50 Q 235 60 240 70 Q 245 60 250 50" fill="#FF69B4"/>
  
  <!-- Text -->
  <text x="150" y="180" text-anchor="middle" fill="#8B4513" font-family="Arial, sans-serif" font-size="16" font-weight="bold">Persian Cat</text>
</svg>
