<svg width="300" height="200" viewBox="0 0 300 200" xmlns="http://www.w3.org/2000/svg">
  <defs>
    <linearGradient id="bg3" x1="0%" y1="0%" x2="100%" y2="100%">
      <stop offset="0%" style="stop-color:#98FB98;stop-opacity:1" />
      <stop offset="100%" style="stop-color:#90EE90;stop-opacity:1" />
    </linearGradient>
  </defs>
  
  <!-- Background -->
  <rect width="300" height="200" fill="url(#bg3)"/>
  
  <!-- Parrot -->
  <ellipse cx="150" cy="100" rx="25" ry="20" fill="#32CD32"/>
  <circle cx="150" cy="95" r="8" fill="#32CD32"/>
  <circle cx="147" cy="93" r="1.5" fill="#000"/>
  <circle cx="153" cy="93" r="1.5" fill="#000"/>
  <ellipse cx="150" cy="97" rx="3" ry="2" fill="#FF6347"/>
  <path d="M 125 100 Q 115 90 125 80" stroke="#32CD32" stroke-width="4" fill="none"/>
  <path d="M 175 100 Q 185 90 175 80" stroke="#32CD32" stroke-width="4" fill="none"/>
  <path d="M 150 120 Q 140 130 150 140 Q 160 130 150 120" fill="#32CD32"/>
  
  <!-- Hearts -->
  <path d="M 50 50 Q 45 40 40 50 Q 35 40 30 50 Q 35 60 40 70 Q 45 60 50 50" fill="#FF69B4"/>
  <path d="M 250 50 Q 245 40 240 50 Q 235 40 230 50 Q 235 60 240 70 Q 245 60 250 50" fill="#FF69B4"/>
  
  <!-- Text -->
  <text x="150" y="180" text-anchor="middle" fill="#8B4513" font-family="Arial, sans-serif" font-size="16" font-weight="bold">Colorful Parrot</text>
</svg>
