<svg width="300" height="200" viewBox="0 0 300 200" xmlns="http://www.w3.org/2000/svg">
  <defs>
    <linearGradient id="bg7" x1="0%" y1="0%" x2="100%" y2="100%">
      <stop offset="0%" style="stop-color:#F0E68C;stop-opacity:1" />
      <stop offset="100%" style="stop-color:#DDA0DD;stop-opacity:1" />
    </linearGradient>
  </defs>
  
  <!-- Background -->
  <rect width="300" height="200" fill="url(#bg7)"/>
  
  <!-- German Shepherd -->
  <circle cx="150" cy="100" r="35" fill="#8B4513"/>
  <circle cx="150" cy="90" r="18" fill="#8B4513"/>
  <circle cx="145" cy="87" r="2" fill="#000"/>
  <circle cx="155" cy="87" r="2" fill="#000"/>
  <ellipse cx="150" cy="92" rx="6" ry="3" fill="#000"/>
  <ellipse cx="130" cy="100" rx="12" ry="6" fill="#8B4513"/>
  <ellipse cx="170" cy="100" rx="12" ry="6" fill="#8B4513"/>
  
  <!-- Hearts -->
  <path d="M 50 50 Q 45 40 40 50 Q 35 40 30 50 Q 35 60 40 70 Q 45 60 50 50" fill="#FF69B4"/>
  <path d="M 250 50 Q 245 40 240 50 Q 235 40 230 50 Q 235 60 240 70 Q 245 60 250 50" fill="#FF69B4"/>
  
  <!-- Text -->
  <text x="150" y="180" text-anchor="middle" fill="#8B4513" font-family="Arial, sans-serif" font-size="16" font-weight="bold">German Shepherd</text>
</svg>
