<svg width="300" height="200" viewBox="0 0 300 200" xmlns="http://www.w3.org/2000/svg">
  <defs>
    <linearGradient id="bg4" x1="0%" y1="0%" x2="100%" y2="100%">
      <stop offset="0%" style="stop-color:#FFE4B5;stop-opacity:1" />
      <stop offset="100%" style="stop-color:#F0E68C;stop-opacity:1" />
    </linearGradient>
  </defs>
  
  <!-- Background -->
  <rect width="300" height="200" fill="url(#bg4)"/>
  
  <!-- Rabbit -->
  <ellipse cx="150" cy="100" rx="30" ry="25" fill="#F5F5DC"/>
  <circle cx="150" cy="90" r="12" fill="#F5F5DC"/>
  <circle cx="147" cy="88" r="2" fill="#000"/>
  <circle cx="153" cy="88" r="2" fill="#000"/>
  <ellipse cx="150" cy="92" rx="4" ry="2" fill="#000"/>
  <path d="M 140 85 L 135 75 L 145 80 Z" fill="#F5F5DC"/>
  <path d="M 160 85 L 165 75 L 155 80 Z" fill="#F5F5DC"/>
  <ellipse cx="150" cy="115" rx="8" ry="6" fill="#F5F5DC"/>
  
  <!-- Hearts -->
  <path d="M 50 50 Q 45 40 40 50 Q 35 40 30 50 Q 35 60 40 70 Q 45 60 50 50" fill="#FF69B4"/>
  <path d="M 250 50 Q 245 40 240 50 Q 235 40 230 50 Q 235 60 240 70 Q 245 60 250 50" fill="#FF69B4"/>
  
  <!-- Text -->
  <text x="150" y="180" text-anchor="middle" fill="#8B4513" font-family="Arial, sans-serif" font-size="16" font-weight="bold">Cute Rabbit</text>
</svg>
